<mxfile host="app.diagrams.net" modified="2023-11-21T08:55:45.737Z" agent="Mozilla/5.0 (Windows NT 10.0; Win64; x64) AppleWebKit/537.36 (KHTML, like Gecko) Chrome/119.0.0.0 Safari/537.36 Edg/119.0.0.0" etag="sTsB6WkKVVCaLC5bjvR7" version="22.1.3" type="device">
  <diagram name="Page-1" id="Wli4VPFNiPU2SU2I3E8u">
    <mxGraphModel dx="996" dy="3841" grid="1" gridSize="10" guides="1" tooltips="1" connect="1" arrows="1" fold="1" page="1" pageScale="1" pageWidth="2339" pageHeight="3300" math="0" shadow="0">
      <root>
        <mxCell id="0" />
        <mxCell id="1" parent="0" />
        <mxCell id="vDlcmsHh33bK4QmpVzsn-176" value="" style="rounded=0;whiteSpace=wrap;html=1;" vertex="1" parent="1">
          <mxGeometry x="120" y="-2390" width="300" height="40" as="geometry" />
        </mxCell>
        <mxCell id="vDlcmsHh33bK4QmpVzsn-177" value="&lt;b style=&quot;&quot;&gt;&lt;u&gt;ID&lt;/u&gt;&lt;/b&gt;" style="text;html=1;align=center;verticalAlign=middle;resizable=0;points=[];autosize=1;strokeColor=none;fillColor=none;" vertex="1" parent="1">
          <mxGeometry x="115" y="-2385" width="40" height="30" as="geometry" />
        </mxCell>
        <mxCell id="vDlcmsHh33bK4QmpVzsn-178" value="&lt;b&gt;Student&lt;/b&gt;" style="text;html=1;align=center;verticalAlign=middle;resizable=0;points=[];autosize=1;strokeColor=none;fillColor=none;" vertex="1" parent="1">
          <mxGeometry x="120" y="-2420" width="70" height="30" as="geometry" />
        </mxCell>
        <mxCell id="vDlcmsHh33bK4QmpVzsn-179" value="" style="endArrow=none;html=1;rounded=0;" edge="1" parent="1">
          <mxGeometry width="50" height="50" relative="1" as="geometry">
            <mxPoint x="165" y="-2390" as="sourcePoint" />
            <mxPoint x="165" y="-2350" as="targetPoint" />
          </mxGeometry>
        </mxCell>
        <mxCell id="vDlcmsHh33bK4QmpVzsn-180" value="" style="endArrow=none;html=1;rounded=0;" edge="1" parent="1">
          <mxGeometry width="50" height="50" relative="1" as="geometry">
            <mxPoint x="219.17" y="-2390" as="sourcePoint" />
            <mxPoint x="219.17" y="-2350" as="targetPoint" />
          </mxGeometry>
        </mxCell>
        <mxCell id="vDlcmsHh33bK4QmpVzsn-181" value="&lt;b&gt;Lname&lt;/b&gt;" style="text;html=1;align=center;verticalAlign=middle;resizable=0;points=[];autosize=1;strokeColor=none;fillColor=none;" vertex="1" parent="1">
          <mxGeometry x="270" y="-2385" width="60" height="30" as="geometry" />
        </mxCell>
        <mxCell id="vDlcmsHh33bK4QmpVzsn-182" value="&lt;b&gt;Fname&lt;/b&gt;" style="text;html=1;align=center;verticalAlign=middle;resizable=0;points=[];autosize=1;strokeColor=none;fillColor=none;" vertex="1" parent="1">
          <mxGeometry x="220" y="-2385" width="60" height="30" as="geometry" />
        </mxCell>
        <mxCell id="vDlcmsHh33bK4QmpVzsn-184" value="&lt;b&gt;Dep_id&lt;/b&gt;" style="text;html=1;align=center;verticalAlign=middle;resizable=0;points=[];autosize=1;strokeColor=none;fillColor=none;" vertex="1" parent="1">
          <mxGeometry x="160" y="-2385" width="60" height="30" as="geometry" />
        </mxCell>
        <mxCell id="vDlcmsHh33bK4QmpVzsn-185" value="&lt;b&gt;Age&lt;/b&gt;" style="text;html=1;align=center;verticalAlign=middle;resizable=0;points=[];autosize=1;strokeColor=none;fillColor=none;" vertex="1" parent="1">
          <mxGeometry x="310" y="-2385" width="50" height="30" as="geometry" />
        </mxCell>
        <mxCell id="vDlcmsHh33bK4QmpVzsn-186" value="&lt;b&gt;Address&lt;/b&gt;" style="text;html=1;align=center;verticalAlign=middle;resizable=0;points=[];autosize=1;strokeColor=none;fillColor=none;" vertex="1" parent="1">
          <mxGeometry x="350" y="-2385" width="70" height="30" as="geometry" />
        </mxCell>
        <mxCell id="vDlcmsHh33bK4QmpVzsn-188" value="" style="endArrow=none;html=1;rounded=0;" edge="1" parent="1">
          <mxGeometry width="50" height="50" relative="1" as="geometry">
            <mxPoint x="320" y="-2350" as="sourcePoint" />
            <mxPoint x="320.1" y="-2390" as="targetPoint" />
          </mxGeometry>
        </mxCell>
        <mxCell id="vDlcmsHh33bK4QmpVzsn-189" value="" style="endArrow=none;html=1;rounded=0;exitX=0.798;exitY=1.106;exitDx=0;exitDy=0;exitPerimeter=0;" edge="1" parent="1">
          <mxGeometry width="50" height="50" relative="1" as="geometry">
            <mxPoint x="279.17" y="-2350" as="sourcePoint" />
            <mxPoint x="279.17" y="-2388" as="targetPoint" />
          </mxGeometry>
        </mxCell>
        <mxCell id="vDlcmsHh33bK4QmpVzsn-190" value="" style="endArrow=none;html=1;rounded=0;" edge="1" parent="1">
          <mxGeometry width="50" height="50" relative="1" as="geometry">
            <mxPoint x="350" y="-2350" as="sourcePoint" />
            <mxPoint x="350.1" y="-2390" as="targetPoint" />
          </mxGeometry>
        </mxCell>
        <mxCell id="vDlcmsHh33bK4QmpVzsn-214" value="" style="endArrow=none;dashed=1;html=1;rounded=0;" edge="1" parent="1">
          <mxGeometry width="50" height="50" relative="1" as="geometry">
            <mxPoint x="170" y="-2355.83" as="sourcePoint" />
            <mxPoint x="210" y="-2355.83" as="targetPoint" />
          </mxGeometry>
        </mxCell>
        <mxCell id="vDlcmsHh33bK4QmpVzsn-215" value="" style="rounded=0;whiteSpace=wrap;html=1;" vertex="1" parent="1">
          <mxGeometry x="480" y="-2290" width="270" height="40" as="geometry" />
        </mxCell>
        <mxCell id="vDlcmsHh33bK4QmpVzsn-216" value="&lt;b style=&quot;&quot;&gt;&lt;u&gt;ID&lt;/u&gt;&lt;/b&gt;" style="text;html=1;align=center;verticalAlign=middle;resizable=0;points=[];autosize=1;strokeColor=none;fillColor=none;" vertex="1" parent="1">
          <mxGeometry x="470" y="-2285" width="40" height="30" as="geometry" />
        </mxCell>
        <mxCell id="vDlcmsHh33bK4QmpVzsn-217" value="&lt;b&gt;Course&lt;/b&gt;" style="text;html=1;align=center;verticalAlign=middle;resizable=0;points=[];autosize=1;strokeColor=none;fillColor=none;" vertex="1" parent="1">
          <mxGeometry x="480" y="-2320" width="60" height="30" as="geometry" />
        </mxCell>
        <mxCell id="vDlcmsHh33bK4QmpVzsn-218" value="" style="endArrow=none;html=1;rounded=0;" edge="1" parent="1">
          <mxGeometry width="50" height="50" relative="1" as="geometry">
            <mxPoint x="520" y="-2290" as="sourcePoint" />
            <mxPoint x="520" y="-2250" as="targetPoint" />
          </mxGeometry>
        </mxCell>
        <mxCell id="vDlcmsHh33bK4QmpVzsn-219" value="" style="endArrow=none;html=1;rounded=0;" edge="1" parent="1">
          <mxGeometry width="50" height="50" relative="1" as="geometry">
            <mxPoint x="574.17" y="-2290" as="sourcePoint" />
            <mxPoint x="574.17" y="-2250" as="targetPoint" />
          </mxGeometry>
        </mxCell>
        <mxCell id="vDlcmsHh33bK4QmpVzsn-220" value="&lt;b&gt;Duration&lt;/b&gt;" style="text;html=1;align=center;verticalAlign=middle;resizable=0;points=[];autosize=1;strokeColor=none;fillColor=none;" vertex="1" parent="1">
          <mxGeometry x="605" y="-2285" width="70" height="30" as="geometry" />
        </mxCell>
        <mxCell id="vDlcmsHh33bK4QmpVzsn-221" value="&lt;b&gt;Topic_id&amp;nbsp;&lt;/b&gt;" style="text;html=1;align=center;verticalAlign=middle;resizable=0;points=[];autosize=1;strokeColor=none;fillColor=none;" vertex="1" parent="1">
          <mxGeometry x="510" y="-2285" width="80" height="30" as="geometry" />
        </mxCell>
        <mxCell id="vDlcmsHh33bK4QmpVzsn-222" value="&lt;b&gt;Name&lt;/b&gt;" style="text;html=1;align=center;verticalAlign=middle;resizable=0;points=[];autosize=1;strokeColor=none;fillColor=none;" vertex="1" parent="1">
          <mxGeometry x="565" y="-2285" width="60" height="30" as="geometry" />
        </mxCell>
        <mxCell id="vDlcmsHh33bK4QmpVzsn-224" value="&lt;b&gt;Description&lt;/b&gt;" style="text;html=1;align=center;verticalAlign=middle;resizable=0;points=[];autosize=1;strokeColor=none;fillColor=none;" vertex="1" parent="1">
          <mxGeometry x="665" y="-2285" width="85" height="30" as="geometry" />
        </mxCell>
        <mxCell id="vDlcmsHh33bK4QmpVzsn-226" value="" style="endArrow=none;html=1;rounded=0;exitX=0.798;exitY=1.106;exitDx=0;exitDy=0;exitPerimeter=0;" edge="1" parent="1">
          <mxGeometry width="50" height="50" relative="1" as="geometry">
            <mxPoint x="615.0000000000001" y="-2251" as="sourcePoint" />
            <mxPoint x="615.0000000000001" y="-2289" as="targetPoint" />
          </mxGeometry>
        </mxCell>
        <mxCell id="vDlcmsHh33bK4QmpVzsn-227" value="" style="endArrow=none;html=1;rounded=0;" edge="1" parent="1">
          <mxGeometry width="50" height="50" relative="1" as="geometry">
            <mxPoint x="670" y="-2250" as="sourcePoint" />
            <mxPoint x="670.1" y="-2290" as="targetPoint" />
          </mxGeometry>
        </mxCell>
        <mxCell id="vDlcmsHh33bK4QmpVzsn-229" value="" style="endArrow=none;dashed=1;html=1;rounded=0;" edge="1" parent="1">
          <mxGeometry width="50" height="50" relative="1" as="geometry">
            <mxPoint x="570" y="-2255.57" as="sourcePoint" />
            <mxPoint x="530" y="-2255.57" as="targetPoint" />
          </mxGeometry>
        </mxCell>
        <mxCell id="vDlcmsHh33bK4QmpVzsn-230" value="" style="rounded=0;whiteSpace=wrap;html=1;" vertex="1" parent="1">
          <mxGeometry x="306" y="-2175" width="135" height="40" as="geometry" />
        </mxCell>
        <mxCell id="vDlcmsHh33bK4QmpVzsn-231" value="&lt;b style=&quot;&quot;&gt;&lt;u&gt;S_id&lt;/u&gt;&lt;/b&gt;" style="text;html=1;align=center;verticalAlign=middle;resizable=0;points=[];autosize=1;strokeColor=none;fillColor=none;" vertex="1" parent="1">
          <mxGeometry x="304" y="-2170" width="45" height="30" as="geometry" />
        </mxCell>
        <mxCell id="vDlcmsHh33bK4QmpVzsn-232" value="&lt;b&gt;Student_Course&lt;/b&gt;" style="text;html=1;align=center;verticalAlign=middle;resizable=0;points=[];autosize=1;strokeColor=none;fillColor=none;" vertex="1" parent="1">
          <mxGeometry x="301" y="-2205" width="115" height="30" as="geometry" />
        </mxCell>
        <mxCell id="vDlcmsHh33bK4QmpVzsn-233" value="" style="endArrow=none;html=1;rounded=0;" edge="1" parent="1">
          <mxGeometry width="50" height="50" relative="1" as="geometry">
            <mxPoint x="346" y="-2175" as="sourcePoint" />
            <mxPoint x="346" y="-2135" as="targetPoint" />
          </mxGeometry>
        </mxCell>
        <mxCell id="vDlcmsHh33bK4QmpVzsn-234" value="" style="endArrow=none;html=1;rounded=0;" edge="1" parent="1">
          <mxGeometry width="50" height="50" relative="1" as="geometry">
            <mxPoint x="400.16999999999996" y="-2175" as="sourcePoint" />
            <mxPoint x="400.16999999999996" y="-2135" as="targetPoint" />
          </mxGeometry>
        </mxCell>
        <mxCell id="vDlcmsHh33bK4QmpVzsn-236" value="&lt;b&gt;&lt;u&gt;C_id&lt;/u&gt;&lt;/b&gt;" style="text;html=1;align=center;verticalAlign=middle;resizable=0;points=[];autosize=1;strokeColor=none;fillColor=none;" vertex="1" parent="1">
          <mxGeometry x="349" y="-2170" width="45" height="30" as="geometry" />
        </mxCell>
        <mxCell id="vDlcmsHh33bK4QmpVzsn-237" value="&lt;b&gt;Grade&lt;/b&gt;" style="text;html=1;align=center;verticalAlign=middle;resizable=0;points=[];autosize=1;strokeColor=none;fillColor=none;" vertex="1" parent="1">
          <mxGeometry x="394" y="-2170" width="55" height="30" as="geometry" />
        </mxCell>
        <mxCell id="vDlcmsHh33bK4QmpVzsn-241" value="" style="endArrow=none;dashed=1;html=1;rounded=0;entryX=0.21;entryY=0.984;entryDx=0;entryDy=0;entryPerimeter=0;" edge="1" parent="1" target="vDlcmsHh33bK4QmpVzsn-231">
          <mxGeometry width="50" height="50" relative="1" as="geometry">
            <mxPoint x="391" y="-2140" as="sourcePoint" />
            <mxPoint x="351" y="-2140" as="targetPoint" />
          </mxGeometry>
        </mxCell>
        <mxCell id="vDlcmsHh33bK4QmpVzsn-242" value="" style="rounded=0;whiteSpace=wrap;html=1;" vertex="1" parent="1">
          <mxGeometry x="675" y="-2180" width="155" height="40" as="geometry" />
        </mxCell>
        <mxCell id="vDlcmsHh33bK4QmpVzsn-243" value="&lt;b style=&quot;&quot;&gt;&lt;u&gt;Ins_id&lt;/u&gt;&lt;/b&gt;" style="text;html=1;align=center;verticalAlign=middle;resizable=0;points=[];autosize=1;strokeColor=none;fillColor=none;" vertex="1" parent="1">
          <mxGeometry x="668" y="-2175" width="55" height="30" as="geometry" />
        </mxCell>
        <mxCell id="vDlcmsHh33bK4QmpVzsn-244" value="&lt;b&gt;Course_Inst&lt;/b&gt;" style="text;html=1;align=center;verticalAlign=middle;resizable=0;points=[];autosize=1;strokeColor=none;fillColor=none;" vertex="1" parent="1">
          <mxGeometry x="683" y="-2210" width="90" height="30" as="geometry" />
        </mxCell>
        <mxCell id="vDlcmsHh33bK4QmpVzsn-245" value="" style="endArrow=none;html=1;rounded=0;" edge="1" parent="1">
          <mxGeometry width="50" height="50" relative="1" as="geometry">
            <mxPoint x="715" y="-2180" as="sourcePoint" />
            <mxPoint x="715" y="-2140" as="targetPoint" />
          </mxGeometry>
        </mxCell>
        <mxCell id="vDlcmsHh33bK4QmpVzsn-246" value="" style="endArrow=none;html=1;rounded=0;" edge="1" parent="1">
          <mxGeometry width="50" height="50" relative="1" as="geometry">
            <mxPoint x="769.17" y="-2180" as="sourcePoint" />
            <mxPoint x="769.17" y="-2140" as="targetPoint" />
          </mxGeometry>
        </mxCell>
        <mxCell id="vDlcmsHh33bK4QmpVzsn-247" value="&lt;b&gt;&lt;u&gt;Cou_id&lt;/u&gt;&lt;/b&gt;" style="text;html=1;align=center;verticalAlign=middle;resizable=0;points=[];autosize=1;strokeColor=none;fillColor=none;" vertex="1" parent="1">
          <mxGeometry x="711" y="-2175" width="60" height="30" as="geometry" />
        </mxCell>
        <mxCell id="vDlcmsHh33bK4QmpVzsn-248" value="&lt;b&gt;Evalution&lt;/b&gt;" style="text;html=1;align=center;verticalAlign=middle;resizable=0;points=[];autosize=1;strokeColor=none;fillColor=none;" vertex="1" parent="1">
          <mxGeometry x="760" y="-2175" width="75" height="30" as="geometry" />
        </mxCell>
        <mxCell id="vDlcmsHh33bK4QmpVzsn-249" value="" style="endArrow=none;dashed=1;html=1;rounded=0;entryX=0.21;entryY=0.984;entryDx=0;entryDy=0;entryPerimeter=0;" edge="1" parent="1" target="vDlcmsHh33bK4QmpVzsn-243">
          <mxGeometry width="50" height="50" relative="1" as="geometry">
            <mxPoint x="760" y="-2145" as="sourcePoint" />
            <mxPoint x="720" y="-2145" as="targetPoint" />
          </mxGeometry>
        </mxCell>
        <mxCell id="vDlcmsHh33bK4QmpVzsn-250" value="" style="rounded=0;whiteSpace=wrap;html=1;" vertex="1" parent="1">
          <mxGeometry x="852" y="-2390" width="88" height="40" as="geometry" />
        </mxCell>
        <mxCell id="vDlcmsHh33bK4QmpVzsn-251" value="&lt;b style=&quot;&quot;&gt;&lt;u&gt;ID&lt;/u&gt;&lt;/b&gt;" style="text;html=1;align=center;verticalAlign=middle;resizable=0;points=[];autosize=1;strokeColor=none;fillColor=none;" vertex="1" parent="1">
          <mxGeometry x="855" y="-2385" width="35" height="30" as="geometry" />
        </mxCell>
        <mxCell id="vDlcmsHh33bK4QmpVzsn-252" value="&lt;b&gt;Topic&lt;/b&gt;" style="text;html=1;align=center;verticalAlign=middle;resizable=0;points=[];autosize=1;strokeColor=none;fillColor=none;" vertex="1" parent="1">
          <mxGeometry x="847.5" y="-2420" width="50" height="30" as="geometry" />
        </mxCell>
        <mxCell id="vDlcmsHh33bK4QmpVzsn-253" value="" style="endArrow=none;html=1;rounded=0;" edge="1" parent="1">
          <mxGeometry width="50" height="50" relative="1" as="geometry">
            <mxPoint x="892" y="-2390" as="sourcePoint" />
            <mxPoint x="892" y="-2350" as="targetPoint" />
          </mxGeometry>
        </mxCell>
        <mxCell id="vDlcmsHh33bK4QmpVzsn-255" value="&lt;b&gt;name&lt;/b&gt;" style="text;html=1;align=center;verticalAlign=middle;resizable=0;points=[];autosize=1;strokeColor=none;fillColor=none;" vertex="1" parent="1">
          <mxGeometry x="893" y="-2385" width="50" height="30" as="geometry" />
        </mxCell>
        <mxCell id="vDlcmsHh33bK4QmpVzsn-258" value="" style="rounded=0;whiteSpace=wrap;html=1;" vertex="1" parent="1">
          <mxGeometry x="130" y="-2040" width="135" height="40" as="geometry" />
        </mxCell>
        <mxCell id="vDlcmsHh33bK4QmpVzsn-259" value="&lt;b style=&quot;&quot;&gt;&lt;u&gt;ID&lt;/u&gt;&lt;/b&gt;" style="text;html=1;align=center;verticalAlign=middle;resizable=0;points=[];autosize=1;strokeColor=none;fillColor=none;" vertex="1" parent="1">
          <mxGeometry x="133" y="-2035" width="35" height="30" as="geometry" />
        </mxCell>
        <mxCell id="vDlcmsHh33bK4QmpVzsn-260" value="&lt;b&gt;Department&lt;/b&gt;" style="text;html=1;align=center;verticalAlign=middle;resizable=0;points=[];autosize=1;strokeColor=none;fillColor=none;" vertex="1" parent="1">
          <mxGeometry x="125" y="-2070" width="90" height="30" as="geometry" />
        </mxCell>
        <mxCell id="vDlcmsHh33bK4QmpVzsn-261" value="" style="endArrow=none;html=1;rounded=0;" edge="1" parent="1">
          <mxGeometry width="50" height="50" relative="1" as="geometry">
            <mxPoint x="170" y="-2040" as="sourcePoint" />
            <mxPoint x="170" y="-2000" as="targetPoint" />
          </mxGeometry>
        </mxCell>
        <mxCell id="vDlcmsHh33bK4QmpVzsn-262" value="" style="endArrow=none;html=1;rounded=0;" edge="1" parent="1">
          <mxGeometry width="50" height="50" relative="1" as="geometry">
            <mxPoint x="224.16999999999996" y="-2040" as="sourcePoint" />
            <mxPoint x="224.16999999999996" y="-2000" as="targetPoint" />
          </mxGeometry>
        </mxCell>
        <mxCell id="vDlcmsHh33bK4QmpVzsn-263" value="&lt;b&gt;&lt;u&gt;Ins_id&lt;/u&gt;&lt;/b&gt;" style="text;html=1;align=center;verticalAlign=middle;resizable=0;points=[];autosize=1;strokeColor=none;fillColor=none;" vertex="1" parent="1">
          <mxGeometry x="168" y="-2035" width="55" height="30" as="geometry" />
        </mxCell>
        <mxCell id="vDlcmsHh33bK4QmpVzsn-264" value="&lt;b&gt;name&lt;/b&gt;" style="text;html=1;align=center;verticalAlign=middle;resizable=0;points=[];autosize=1;strokeColor=none;fillColor=none;" vertex="1" parent="1">
          <mxGeometry x="221" y="-2035" width="50" height="30" as="geometry" />
        </mxCell>
        <mxCell id="vDlcmsHh33bK4QmpVzsn-265" value="" style="endArrow=none;dashed=1;html=1;rounded=0;" edge="1" parent="1">
          <mxGeometry width="50" height="50" relative="1" as="geometry">
            <mxPoint x="215" y="-2005" as="sourcePoint" />
            <mxPoint x="180" y="-2005" as="targetPoint" />
          </mxGeometry>
        </mxCell>
        <mxCell id="vDlcmsHh33bK4QmpVzsn-266" value="" style="rounded=0;whiteSpace=wrap;html=1;" vertex="1" parent="1">
          <mxGeometry x="598" y="-2050" width="347" height="40" as="geometry" />
        </mxCell>
        <mxCell id="vDlcmsHh33bK4QmpVzsn-267" value="&lt;b style=&quot;&quot;&gt;&lt;u&gt;ID&lt;/u&gt;&lt;/b&gt;" style="text;html=1;align=center;verticalAlign=middle;resizable=0;points=[];autosize=1;strokeColor=none;fillColor=none;" vertex="1" parent="1">
          <mxGeometry x="595" y="-2045" width="40" height="30" as="geometry" />
        </mxCell>
        <mxCell id="vDlcmsHh33bK4QmpVzsn-268" value="&lt;b&gt;Instructor&lt;/b&gt;" style="text;html=1;align=center;verticalAlign=middle;resizable=0;points=[];autosize=1;strokeColor=none;fillColor=none;" vertex="1" parent="1">
          <mxGeometry x="591" y="-2080" width="75" height="30" as="geometry" />
        </mxCell>
        <mxCell id="vDlcmsHh33bK4QmpVzsn-269" value="" style="endArrow=none;html=1;rounded=0;" edge="1" parent="1">
          <mxGeometry width="50" height="50" relative="1" as="geometry">
            <mxPoint x="638" y="-2050" as="sourcePoint" />
            <mxPoint x="638" y="-2010" as="targetPoint" />
          </mxGeometry>
        </mxCell>
        <mxCell id="vDlcmsHh33bK4QmpVzsn-270" value="" style="endArrow=none;html=1;rounded=0;" edge="1" parent="1">
          <mxGeometry width="50" height="50" relative="1" as="geometry">
            <mxPoint x="692.17" y="-2050" as="sourcePoint" />
            <mxPoint x="692.17" y="-2010" as="targetPoint" />
          </mxGeometry>
        </mxCell>
        <mxCell id="vDlcmsHh33bK4QmpVzsn-271" value="&lt;b&gt;address&lt;/b&gt;" style="text;html=1;align=center;verticalAlign=middle;resizable=0;points=[];autosize=1;strokeColor=none;fillColor=none;" vertex="1" parent="1">
          <mxGeometry x="726" y="-2045" width="65" height="30" as="geometry" />
        </mxCell>
        <mxCell id="vDlcmsHh33bK4QmpVzsn-272" value="&lt;b&gt;Dep_id&lt;/b&gt;" style="text;html=1;align=center;verticalAlign=middle;resizable=0;points=[];autosize=1;strokeColor=none;fillColor=none;" vertex="1" parent="1">
          <mxGeometry x="638" y="-2045" width="60" height="30" as="geometry" />
        </mxCell>
        <mxCell id="vDlcmsHh33bK4QmpVzsn-273" value="&lt;b&gt;Name&lt;/b&gt;" style="text;html=1;align=center;verticalAlign=middle;resizable=0;points=[];autosize=1;strokeColor=none;fillColor=none;" vertex="1" parent="1">
          <mxGeometry x="683" y="-2045" width="60" height="30" as="geometry" />
        </mxCell>
        <mxCell id="vDlcmsHh33bK4QmpVzsn-274" value="&lt;b&gt;salary&lt;/b&gt;" style="text;html=1;align=center;verticalAlign=middle;resizable=0;points=[];autosize=1;strokeColor=none;fillColor=none;" vertex="1" parent="1">
          <mxGeometry x="780" y="-2045" width="55" height="30" as="geometry" />
        </mxCell>
        <mxCell id="vDlcmsHh33bK4QmpVzsn-275" value="" style="endArrow=none;html=1;rounded=0;exitX=0.798;exitY=1.106;exitDx=0;exitDy=0;exitPerimeter=0;" edge="1" parent="1">
          <mxGeometry width="50" height="50" relative="1" as="geometry">
            <mxPoint x="733.0000000000001" y="-2011" as="sourcePoint" />
            <mxPoint x="733.0000000000001" y="-2049" as="targetPoint" />
          </mxGeometry>
        </mxCell>
        <mxCell id="vDlcmsHh33bK4QmpVzsn-276" value="" style="endArrow=none;html=1;rounded=0;" edge="1" parent="1">
          <mxGeometry width="50" height="50" relative="1" as="geometry">
            <mxPoint x="788" y="-2010" as="sourcePoint" />
            <mxPoint x="788.1" y="-2050" as="targetPoint" />
          </mxGeometry>
        </mxCell>
        <mxCell id="vDlcmsHh33bK4QmpVzsn-277" value="" style="endArrow=none;dashed=1;html=1;rounded=0;" edge="1" parent="1">
          <mxGeometry width="50" height="50" relative="1" as="geometry">
            <mxPoint x="688" y="-2015.5700000000002" as="sourcePoint" />
            <mxPoint x="648" y="-2015.5700000000002" as="targetPoint" />
          </mxGeometry>
        </mxCell>
        <mxCell id="vDlcmsHh33bK4QmpVzsn-278" value="&lt;b&gt;bouns&lt;/b&gt;" style="text;html=1;align=center;verticalAlign=middle;resizable=0;points=[];autosize=1;strokeColor=none;fillColor=none;" vertex="1" parent="1">
          <mxGeometry x="825" y="-2045" width="55" height="30" as="geometry" />
        </mxCell>
        <mxCell id="vDlcmsHh33bK4QmpVzsn-279" value="&lt;b&gt;hour_rate&lt;/b&gt;" style="text;html=1;align=center;verticalAlign=middle;resizable=0;points=[];autosize=1;strokeColor=none;fillColor=none;" vertex="1" parent="1">
          <mxGeometry x="875" y="-2045" width="75" height="30" as="geometry" />
        </mxCell>
        <mxCell id="vDlcmsHh33bK4QmpVzsn-281" value="" style="endArrow=none;html=1;rounded=0;" edge="1" parent="1">
          <mxGeometry width="50" height="50" relative="1" as="geometry">
            <mxPoint x="875" y="-2010" as="sourcePoint" />
            <mxPoint x="875.1" y="-2050" as="targetPoint" />
          </mxGeometry>
        </mxCell>
        <mxCell id="vDlcmsHh33bK4QmpVzsn-282" value="" style="endArrow=none;html=1;rounded=0;" edge="1" parent="1">
          <mxGeometry width="50" height="50" relative="1" as="geometry">
            <mxPoint x="830" y="-2010" as="sourcePoint" />
            <mxPoint x="830.1" y="-2050" as="targetPoint" />
          </mxGeometry>
        </mxCell>
        <mxCell id="vDlcmsHh33bK4QmpVzsn-283" value="" style="endArrow=classic;html=1;rounded=0;exitX=0.5;exitY=1;exitDx=0;exitDy=0;" edge="1" parent="1" source="vDlcmsHh33bK4QmpVzsn-258">
          <mxGeometry width="50" height="50" relative="1" as="geometry">
            <mxPoint x="520" y="-2095" as="sourcePoint" />
            <mxPoint x="615" y="-2010" as="targetPoint" />
            <Array as="points">
              <mxPoint x="198" y="-1950" />
              <mxPoint x="615" y="-1950" />
            </Array>
          </mxGeometry>
        </mxCell>
        <mxCell id="vDlcmsHh33bK4QmpVzsn-284" value="" style="endArrow=classic;html=1;rounded=0;exitX=0.202;exitY=1.075;exitDx=0;exitDy=0;exitPerimeter=0;entryX=0.127;entryY=1.101;entryDx=0;entryDy=0;entryPerimeter=0;" edge="1" parent="1" source="vDlcmsHh33bK4QmpVzsn-266" target="vDlcmsHh33bK4QmpVzsn-258">
          <mxGeometry width="50" height="50" relative="1" as="geometry">
            <mxPoint x="520" y="-2090" as="sourcePoint" />
            <mxPoint x="140" y="-1930" as="targetPoint" />
            <Array as="points">
              <mxPoint x="668" y="-1930" />
              <mxPoint x="147" y="-1930" />
            </Array>
          </mxGeometry>
        </mxCell>
        <mxCell id="vDlcmsHh33bK4QmpVzsn-285" value="" style="endArrow=classic;html=1;rounded=0;exitX=0.267;exitY=0;exitDx=0;exitDy=0;exitPerimeter=0;entryX=0;entryY=0.5;entryDx=0;entryDy=0;" edge="1" parent="1" source="vDlcmsHh33bK4QmpVzsn-176" target="vDlcmsHh33bK4QmpVzsn-258">
          <mxGeometry width="50" height="50" relative="1" as="geometry">
            <mxPoint x="200" y="-2400" as="sourcePoint" />
            <mxPoint x="40" y="-2480" as="targetPoint" />
            <Array as="points">
              <mxPoint x="200" y="-2440" />
              <mxPoint x="80" y="-2440" />
              <mxPoint x="80" y="-2020" />
            </Array>
          </mxGeometry>
        </mxCell>
        <mxCell id="vDlcmsHh33bK4QmpVzsn-286" value="" style="endArrow=classic;html=1;rounded=0;exitX=-0.028;exitY=0.636;exitDx=0;exitDy=0;exitPerimeter=0;entryX=0.057;entryY=1.057;entryDx=0;entryDy=0;entryPerimeter=0;" edge="1" parent="1" source="vDlcmsHh33bK4QmpVzsn-231" target="vDlcmsHh33bK4QmpVzsn-176">
          <mxGeometry width="50" height="50" relative="1" as="geometry">
            <mxPoint x="400" y="-2180" as="sourcePoint" />
            <mxPoint x="140" y="-2150" as="targetPoint" />
            <Array as="points">
              <mxPoint x="140" y="-2151" />
            </Array>
          </mxGeometry>
        </mxCell>
        <mxCell id="vDlcmsHh33bK4QmpVzsn-287" value="" style="endArrow=classic;html=1;rounded=0;exitX=0.5;exitY=1;exitDx=0;exitDy=0;entryX=0.079;entryY=1.077;entryDx=0;entryDy=0;entryPerimeter=0;" edge="1" parent="1" source="vDlcmsHh33bK4QmpVzsn-230" target="vDlcmsHh33bK4QmpVzsn-215">
          <mxGeometry width="50" height="50" relative="1" as="geometry">
            <mxPoint x="450" y="-2070" as="sourcePoint" />
            <mxPoint x="630" y="-2110" as="targetPoint" />
            <Array as="points">
              <mxPoint x="374" y="-2110" />
              <mxPoint x="501" y="-2110" />
            </Array>
          </mxGeometry>
        </mxCell>
        <mxCell id="vDlcmsHh33bK4QmpVzsn-288" value="" style="endArrow=classic;html=1;rounded=0;exitX=0.25;exitY=0;exitDx=0;exitDy=0;entryX=0.25;entryY=1;entryDx=0;entryDy=0;" edge="1" parent="1" source="vDlcmsHh33bK4QmpVzsn-215" target="vDlcmsHh33bK4QmpVzsn-250">
          <mxGeometry width="50" height="50" relative="1" as="geometry">
            <mxPoint x="590" y="-2340" as="sourcePoint" />
            <mxPoint x="880" y="-2320" as="targetPoint" />
            <Array as="points">
              <mxPoint x="548" y="-2320" />
              <mxPoint x="874" y="-2320" />
            </Array>
          </mxGeometry>
        </mxCell>
        <mxCell id="vDlcmsHh33bK4QmpVzsn-289" value="" style="endArrow=classic;html=1;rounded=0;exitX=0.123;exitY=1.005;exitDx=0;exitDy=0;exitPerimeter=0;entryX=0.125;entryY=0.5;entryDx=0;entryDy=0;entryPerimeter=0;" edge="1" parent="1" source="vDlcmsHh33bK4QmpVzsn-242" target="vDlcmsHh33bK4QmpVzsn-267">
          <mxGeometry width="50" height="50" relative="1" as="geometry">
            <mxPoint x="740" y="-2090" as="sourcePoint" />
            <mxPoint x="590" y="-2030" as="targetPoint" />
            <Array as="points">
              <mxPoint x="694" y="-2110" />
              <mxPoint x="560" y="-2110" />
              <mxPoint x="560" y="-2030" />
            </Array>
          </mxGeometry>
        </mxCell>
        <mxCell id="vDlcmsHh33bK4QmpVzsn-290" value="" style="endArrow=classic;html=1;rounded=0;exitX=0.432;exitY=0.985;exitDx=0;exitDy=0;exitPerimeter=0;entryX=0.117;entryY=1.075;entryDx=0;entryDy=0;entryPerimeter=0;" edge="1" parent="1" source="vDlcmsHh33bK4QmpVzsn-242" target="vDlcmsHh33bK4QmpVzsn-215">
          <mxGeometry width="50" height="50" relative="1" as="geometry">
            <mxPoint x="825" y="-2110" as="sourcePoint" />
            <mxPoint x="880" y="-2240" as="targetPoint" />
            <Array as="points">
              <mxPoint x="742" y="-2110" />
              <mxPoint x="880" y="-2110" />
              <mxPoint x="880" y="-2220" />
              <mxPoint x="512" y="-2220" />
            </Array>
          </mxGeometry>
        </mxCell>
      </root>
    </mxGraphModel>
  </diagram>
</mxfile>
